<svg fill="#F6F6F6" width="40px" height="40px" viewBox="0 0 32 32" version="1.1" xmlns="http://www.w3.org/2000/svg"><g id="SVGRepo_bgCarrier" stroke-width="0"></g><g id="SVGRepo_tracerCarrier" stroke-linecap="round" stroke-linejoin="round"></g><g id="SVGRepo_iconCarrier"> <title>expand</title> <path d="M12 29.25h-9.25v-9.25c0-0.414-0.336-0.75-0.75-0.75s-0.75 0.336-0.75 0.75v0 10c0 0.414 0.336 0.75 0.75 0.75h10c0.414 0 0.75-0.336 0.75-0.75s-0.336-0.75-0.75-0.75v0zM30 19.25c-0.414 0-0.75 0.336-0.75 0.75v0 9.25h-9.25c-0.414 0-0.75 0.336-0.75 0.75s0.336 0.75 0.75 0.75v0h10c0.414-0 0.75-0.336 0.75-0.75v0-10c-0-0.414-0.336-0.75-0.75-0.75v0zM12 1.25h-10c-0.414 0-0.75 0.336-0.75 0.75v0 10c0 0.414 0.336 0.75 0.75 0.75s0.75-0.336 0.75-0.75v0-9.25h9.25c0.414 0 0.75-0.336 0.75-0.75s-0.336-0.75-0.75-0.75v0zM30 1.25h-10c-0.414 0-0.75 0.336-0.75 0.75s0.336 0.75 0.75 0.75v0h9.25v9.25c0 0.414 0.336 0.75 0.75 0.75s0.75-0.336 0.75-0.75v0-10c-0-0.414-0.336-0.75-0.75-0.75v0z"></path> </g></svg>
